if (_typeface_js && _typeface_js.loadFace) _typeface_js.loadFace({"glyphs":{"S":{"x_min":1,"x_max":1191,"ha":1360,"o":"m 256 1190 l 766 1190 q 938 1107 855 1190 q 1020 935 1020 1025 q 996 874 1020 899 q 936 850 972 850 l 766 850 q 693 893 712 850 q 668 976 680 935 q 596 1020 648 1020 l 426 1020 q 365 995 390 1020 q 341 935 341 971 l 341 765 q 365 704 341 729 q 426 680 390 680 l 936 680 q 1044 646 992 680 q 1191 424 1191 552 l 1191 255 q 1108 83 1191 166 q 936 0 1026 0 l 256 0 q 83 82 165 0 q 1 255 1 164 q 25 315 1 291 q 86 340 50 340 l 256 340 q 328 296 309 340 q 353 213 341 255 q 426 170 372 170 l 766 170 q 826 194 802 170 q 851 255 851 219 l 851 424 q 826 485 851 460 q 766 510 802 510 l 256 510 q 148 543 199 510 q 1 765 1 637 l 1 935 q 84 1107 1 1025 q 256 1190 167 1190 "},"/":{"x_min":1,"x_max":1190.5625,"ha":1360,"o":"m 1106 1190 q 1165 1165 1140 1190 q 1190 1105 1190 1140 q 1130 959 1190 1020 l 230 60 q 86 0 170 0 q 25 24 50 0 q 1 85 1 49 q 61 229 1 169 l 960 1129 q 1106 1190 1020 1190 "},"K":{"x_min":1,"x_max":1190.5625,"ha":1360,"o":"m 1190 1104 q 1166 1165 1190 1140 q 1106 1190 1142 1190 l 936 1190 q 790 1129 850 1190 l 400 739 q 366 720 381 720 q 340 765 340 720 l 340 1104 q 316 1165 340 1140 q 256 1190 292 1190 l 86 1190 q 25 1165 50 1190 q 1 1104 1 1140 l 1 85 q 25 24 1 49 q 86 0 50 0 l 256 0 q 342 125 342 0 q 340 169 342 140 q 339 214 339 199 q 426 339 339 339 l 936 0 l 1106 0 q 1166 24 1142 0 q 1190 85 1190 49 q 1130 230 1190 170 l 826 534 q 800 594 800 559 q 826 655 800 630 l 1130 959 q 1190 1104 1190 1020 "},"7":{"x_min":1,"x_max":1190.5625,"ha":1360,"o":"m 1 935 q 25 874 1 899 q 86 849 50 849 l 256 849 q 328 893 308 849 q 353 976 340 935 q 426 1019 372 1019 l 766 1019 q 817 1010 793 1019 q 850 977 850 999 q 790 873 850 934 l 400 485 q 340 339 340 425 l 340 85 q 365 24 340 49 q 426 0 390 0 l 596 0 q 683 135 683 0 q 680 206 683 159 q 678 277 678 253 q 740 485 678 423 l 1130 874 q 1185 982 1173 917 q 1190 1105 1190 1012 q 1165 1165 1190 1140 q 1106 1190 1140 1190 l 86 1190 q 25 1165 50 1190 q 1 1105 1 1141 l 1 935 "},"d":{"x_min":1,"x_max":1190.5625,"ha":1360,"o":"m 766 1190 l 86 1190 q 25 1165 50 1190 q 1 1104 1 1140 l 1 85 q 25 24 1 49 q 86 0 50 0 l 766 0 q 910 60 850 0 l 1130 279 q 1190 424 1190 340 l 1190 764 q 1130 910 1190 850 l 910 1129 q 766 1190 850 1190 m 850 424 q 768 252 850 334 q 596 169 685 169 l 426 169 q 365 194 390 169 q 340 255 340 219 l 340 934 q 365 994 340 969 q 426 1019 390 1019 l 596 1019 q 768 936 685 1019 q 850 764 850 853 l 850 424 "},",":{"x_min":171,"x_max":510.875,"ha":1360,"o":"m 256 680 q 195 655 220 680 q 171 595 171 631 l 171 425 q 214 352 171 371 q 297 327 256 340 q 340 255 340 308 q 297 182 340 201 q 214 157 256 170 q 171 85 171 138 q 195 24 171 49 q 256 0 220 0 q 428 83 346 0 q 510 255 510 166 l 510 595 q 485 655 510 630 q 426 680 461 680 l 256 680 "},"Y":{"x_min":170,"x_max":1190,"ha":1360,"o":"m 170 1105 q 194 1165 170 1141 q 255 1190 219 1190 l 425 1190 q 485 1165 460 1190 q 510 1105 510 1140 l 510 765 q 534 704 510 729 q 595 679 559 679 l 765 679 q 825 704 801 679 q 850 765 850 729 l 850 1105 q 874 1165 850 1141 q 935 1190 899 1190 l 1105 1190 q 1165 1165 1140 1190 q 1190 1105 1190 1140 l 1190 765 q 1107 593 1190 676 q 935 510 1025 510 q 874 485 899 510 q 850 424 850 460 l 850 85 q 825 24 850 49 q 765 0 801 0 l 595 0 q 534 24 559 0 q 510 85 510 49 l 510 424 q 485 485 510 460 q 425 510 461 510 q 252 592 334 510 q 170 765 170 674 l 170 1105 "},"E":{"x_min":1,"x_max":1190.5625,"ha":1360,"o":"m 1 1104 q 25 1165 1 1140 q 86 1190 50 1190 l 1106 1190 q 1166 1165 1142 1190 q 1190 1104 1190 1140 q 1165 1044 1190 1069 q 1106 1020 1140 1020 l 426 1020 q 365 995 390 1020 q 341 934 341 970 l 341 765 q 365 704 341 729 q 426 680 390 680 l 936 680 q 995 655 970 680 q 1020 595 1020 630 q 996 534 1020 559 q 936 510 972 510 l 426 510 q 365 485 390 510 q 341 424 341 460 l 341 255 q 365 194 341 219 q 426 170 390 170 l 1106 170 q 1165 145 1140 170 q 1190 85 1190 120 q 1166 24 1190 49 q 1106 0 1142 0 l 86 0 q 25 24 50 0 q 1 85 1 49 l 1 1104 "},"y":{"x_min":170,"x_max":1190,"ha":1360,"o":"m 170 1105 q 194 1165 170 1141 q 255 1190 219 1190 l 425 1190 q 485 1165 460 1190 q 510 1105 510 1140 l 510 765 q 534 704 510 729 q 595 679 559 679 l 765 679 q 825 704 801 679 q 850 765 850 729 l 850 1105 q 874 1165 850 1141 q 935 1190 899 1190 l 1105 1190 q 1165 1165 1140 1190 q 1190 1105 1190 1140 l 1190 765 q 1107 593 1190 676 q 935 510 1025 510 q 874 485 899 510 q 850 424 850 460 l 850 85 q 825 24 850 49 q 765 0 801 0 l 595 0 q 534 24 559 0 q 510 85 510 49 l 510 424 q 485 485 510 460 q 425 510 461 510 q 252 592 334 510 q 170 765 170 674 l 170 1105 "},"\"":{"x_min":171,"x_max":1020.6875,"ha":1360,"o":"m 171 935 l 340 765 q 297 692 340 711 q 214 667 256 680 q 171 595 171 648 q 195 534 171 559 q 256 510 220 510 q 428 593 346 510 q 511 765 511 676 l 511 1105 q 486 1165 511 1140 q 426 1190 461 1190 l 256 1190 q 195 1165 220 1190 q 171 1105 171 1141 l 171 935 m 766 1190 q 705 1165 730 1190 q 681 1105 681 1141 l 681 935 l 850 765 q 807 692 850 711 q 724 667 766 680 q 681 595 681 648 q 705 534 681 559 q 766 510 730 510 q 938 593 855 510 q 1020 765 1020 676 l 1020 1105 q 995 1165 1020 1140 q 936 1190 970 1190 l 766 1190 "},"g":{"x_min":1,"x_max":1190.5625,"ha":1360,"o":"m 1 764 l 1 424 q 61 279 1 340 l 280 60 q 426 0 340 0 l 1106 0 q 1166 24 1142 0 q 1190 85 1190 49 l 1190 595 q 1165 655 1190 630 q 1106 680 1140 680 l 766 680 q 705 655 730 680 q 681 595 681 631 q 724 522 681 541 q 807 497 766 509 q 850 424 850 478 l 850 255 q 826 194 850 219 q 766 169 802 169 l 596 169 q 424 252 507 169 q 341 424 341 334 l 341 764 q 487 986 341 892 q 596 1020 539 1020 l 1106 1020 q 1165 1044 1140 1020 q 1190 1104 1190 1069 q 1166 1165 1190 1140 q 1106 1190 1142 1190 l 426 1190 q 280 1129 340 1190 l 61 910 q 1 764 1 850 "},"ƒ":{"x_min":171,"x_max":975.96875,"ha":1360,"o":"m 255 0 q 195 24 219 0 q 171 85 171 49 l 171 1105 q 195 1165 171 1140 q 255 1190 220 1190 q 416 1151 339 1190 l 945 888 q 975 850 975 873 q 945 811 975 827 l 416 548 q 363 496 385 533 q 341 425 341 460 l 341 85 q 316 24 341 49 q 255 0 291 0 "},"e":{"x_min":1,"x_max":1190.5625,"ha":1360,"o":"m 1 1104 q 25 1165 1 1140 q 86 1190 50 1190 l 1106 1190 q 1166 1165 1142 1190 q 1190 1104 1190 1140 q 1165 1044 1190 1069 q 1106 1020 1140 1020 l 426 1020 q 365 995 390 1020 q 341 934 341 970 l 341 765 q 365 704 341 729 q 426 680 390 680 l 936 680 q 995 655 970 680 q 1020 595 1020 630 q 996 534 1020 559 q 936 510 972 510 l 426 510 q 365 485 390 510 q 341 424 341 460 l 341 255 q 365 194 341 219 q 426 170 390 170 l 1106 170 q 1165 145 1140 170 q 1190 85 1190 120 q 1166 24 1190 49 q 1106 0 1142 0 l 86 0 q 25 24 50 0 q 1 85 1 49 l 1 1104 "},"J":{"x_min":1,"x_max":1191,"ha":1360,"o":"m 936 1190 l 1106 1190 q 1166 1165 1142 1190 q 1191 1104 1191 1140 l 1191 255 q 1108 83 1191 166 q 936 0 1026 0 l 256 0 q 83 82 165 0 q 1 255 1 164 l 1 424 q 25 484 1 459 q 86 509 50 509 l 256 509 q 342 384 342 509 q 342 339 342 369 q 342 295 342 310 q 428 170 342 170 l 767 170 q 826 194 802 170 q 851 255 851 219 l 851 1104 q 875 1165 851 1140 q 936 1190 900 1190 "},"|":{"x_min":511,"x_max":681,"ha":1360,"o":"m 511 1105 q 535 1165 511 1140 q 595 1190 560 1190 q 656 1165 631 1190 q 681 1105 681 1141 l 681 85 q 656 24 681 49 q 595 0 631 0 q 535 24 559 0 q 511 85 511 49 l 511 1105 "},"‐":{"x_min":171,"x_max":1020.6875,"ha":1360,"o":"m 171 595 q 195 655 171 631 q 256 680 220 680 l 936 680 q 995 655 970 680 q 1020 595 1020 630 q 996 534 1020 559 q 936 510 972 510 l 256 510 q 195 534 220 510 q 171 595 171 559 "},"©":{"x_min":1,"x_max":1190.5625,"ha":1360,"o":"m 341 765 q 365 825 341 801 q 426 850 390 850 l 766 850 q 825 825 800 850 q 850 765 850 800 q 725 679 850 679 q 680 679 710 679 q 636 679 651 679 q 511 594 511 679 q 636 508 511 508 q 680 509 651 508 q 725 511 710 511 q 850 425 850 511 q 826 364 850 389 q 766 339 802 339 l 426 339 q 365 364 390 339 q 341 425 341 389 l 341 765 m 936 1190 l 256 1190 q 84 1107 167 1190 q 1 935 1 1025 l 1 255 q 83 82 1 164 q 256 0 165 0 l 936 0 q 1108 83 1025 0 q 1190 255 1190 166 l 1190 935 q 1108 1107 1190 1025 q 936 1190 1025 1190 m 1020 255 q 996 194 1020 219 q 936 169 972 169 l 256 169 q 195 194 220 169 q 171 255 171 219 l 171 935 q 195 995 171 971 q 256 1020 220 1020 l 936 1020 q 995 995 970 1020 q 1020 935 1020 970 l 1020 255 "},"^":{"x_min":341,"x_max":850.8125,"ha":1360,"o":"m 596 1190 q 424 1107 507 1190 q 341 935 341 1025 q 365 874 341 899 q 426 850 390 850 q 531 879 471 850 q 596 909 591 909 q 660 879 600 909 q 766 850 720 850 q 826 874 802 850 q 850 935 850 899 q 768 1107 850 1025 q 596 1190 685 1190 "},"q":{"x_min":1,"x_max":1190.5625,"ha":1360,"o":"m 1190 935 q 1108 1107 1190 1025 q 936 1190 1025 1190 l 256 1190 q 84 1107 167 1190 q 1 935 1 1025 l 1 255 q 83 82 1 164 q 256 0 165 0 l 766 0 q 871 30 812 0 q 936 60 929 60 q 1000 30 941 60 q 1106 0 1058 0 q 1166 24 1142 0 q 1190 85 1190 49 q 1160 190 1190 131 q 1130 255 1130 249 q 1160 319 1130 260 q 1190 425 1190 378 l 1190 935 m 850 595 q 826 534 850 559 q 766 509 802 509 l 596 509 q 552 484 552 509 q 585 435 552 470 q 647 362 608 412 q 681 255 681 311 q 656 194 681 219 q 596 169 632 169 l 426 169 q 365 194 390 169 q 341 255 341 219 l 341 935 q 365 995 341 971 q 426 1019 390 1019 l 766 1019 q 825 994 800 1019 q 850 935 850 969 l 850 595 "},"b":{"x_min":1,"x_max":1190.5625,"ha":1360,"o":"m 1190 935 q 1108 1107 1190 1025 q 936 1190 1025 1190 l 86 1190 q 25 1165 50 1190 q 1 1105 1 1141 l 1 85 q 25 24 1 49 q 86 0 50 0 l 936 0 q 1108 83 1025 0 q 1190 255 1190 166 l 1190 424 q 1160 530 1190 470 q 1130 594 1130 590 q 1160 659 1130 599 q 1190 765 1190 719 l 1190 935 m 850 255 q 826 194 850 219 q 766 170 802 170 l 426 170 q 365 194 390 170 q 340 255 340 219 l 340 424 q 365 485 340 460 q 426 510 390 510 l 766 510 q 826 485 802 510 q 850 424 850 460 l 850 255 m 850 765 q 826 704 850 729 q 766 680 802 680 l 426 680 q 365 704 390 680 q 340 765 340 729 l 340 935 q 365 995 340 971 q 426 1020 390 1020 l 766 1020 q 825 995 800 1020 q 850 935 850 970 l 850 765 "},"D":{"x_min":1,"x_max":1190.5625,"ha":1360,"o":"m 766 1190 l 86 1190 q 25 1165 50 1190 q 1 1104 1 1140 l 1 85 q 25 24 1 49 q 86 0 50 0 l 766 0 q 910 60 850 0 l 1130 279 q 1190 424 1190 340 l 1190 764 q 1130 910 1190 850 l 910 1129 q 766 1190 850 1190 m 850 424 q 768 252 850 334 q 596 169 685 169 l 426 169 q 365 194 390 169 q 340 255 340 219 l 340 934 q 365 994 340 969 q 426 1019 390 1019 l 596 1019 q 768 936 685 1019 q 850 764 850 853 l 850 424 "},"z":{"x_min":1,"x_max":1190.5625,"ha":1360,"o":"m 1 1105 q 25 1165 1 1141 q 86 1190 50 1190 l 1106 1190 q 1185 1129 1170 1190 q 1190 1020 1190 1110 q 1130 874 1190 934 l 570 315 q 510 212 510 255 q 544 178 510 190 q 596 170 569 170 l 1106 170 q 1165 145 1140 170 q 1190 85 1190 120 q 1166 24 1190 49 q 1106 0 1142 0 l 86 0 q 6 60 21 0 q 1 170 1 79 q 61 315 1 255 l 620 874 q 680 977 680 934 q 647 1011 680 999 q 596 1020 623 1020 l 86 1020 q 25 1044 50 1020 q 1 1105 1 1069 "},"w":{"x_min":1,"x_max":1190.5625,"ha":1360,"o":"m 936 1190 q 875 1165 900 1190 q 850 1105 850 1141 l 850 595 q 825 550 850 550 q 777 583 812 550 q 703 646 730 628 q 596 679 651 679 q 487 646 538 679 q 413 583 462 629 q 366 550 379 550 q 340 595 340 550 l 340 1105 q 315 1165 340 1140 q 256 1190 291 1190 l 86 1190 q 25 1165 50 1190 q 1 1105 1 1141 l 1 85 q 25 24 1 49 q 86 0 50 0 l 256 0 q 395 57 328 0 q 500 162 409 69 q 596 219 556 219 q 690 162 634 219 q 795 57 781 69 q 936 0 863 0 l 1106 0 q 1166 24 1142 0 q 1190 85 1190 49 l 1190 1105 q 1165 1165 1190 1140 q 1106 1190 1140 1190 l 936 1190 "},"$":{"x_min":171,"x_max":1020.6875,"ha":1360,"o":"m 1020 936 q 995 994 1020 970 q 936 1019 970 1019 l 766 1019 q 693 1063 712 1019 q 668 1146 680 1105 q 596 1190 648 1190 l 426 1020 q 254 937 337 1020 q 171 765 171 855 q 253 592 171 675 q 426 510 335 510 q 486 485 462 510 q 511 424 511 460 q 385 339 511 339 q 341 339 370 339 q 296 339 311 339 q 171 254 171 339 q 195 194 171 219 q 256 169 220 169 l 426 169 q 498 126 478 169 q 523 43 510 85 q 596 0 542 0 q 668 43 648 0 q 693 126 680 85 q 766 169 712 169 q 938 252 855 169 q 1020 423 1020 334 q 938 596 1020 513 q 766 678 855 678 q 705 703 730 678 q 681 764 681 728 q 806 850 681 850 q 850 850 821 850 q 895 850 880 850 q 1020 936 1020 850 m 511 765 q 486 704 511 729 q 426 680 462 680 q 365 704 390 680 q 341 765 341 729 q 365 825 341 801 q 426 850 390 850 q 486 825 461 850 q 511 765 511 800 m 766 510 q 826 484 802 510 q 851 423 851 459 q 826 364 851 389 q 766 339 801 339 q 705 363 730 339 q 681 423 681 387 q 705 484 681 459 q 766 510 730 510 "},"™":{"x_min":1,"x_max":1191,"ha":1360,"o":"m 1 1105 q 25 1165 1 1140 q 85 1190 50 1190 l 426 1190 q 486 1165 461 1190 q 511 1105 511 1140 q 467 1032 511 1051 q 384 1007 426 1020 q 341 935 341 988 l 341 595 q 316 534 341 559 q 256 510 292 510 q 195 534 220 510 q 171 595 171 559 l 171 935 q 127 1007 171 988 q 44 1032 86 1020 q 1 1105 1 1051 m 680 1105 q 705 1165 680 1141 q 766 1190 730 1190 q 838 1146 818 1190 l 863 1064 q 936 1020 882 1020 l 1106 1190 q 1166 1165 1141 1190 q 1191 1105 1191 1140 l 1191 595 q 1166 534 1191 559 q 1106 510 1142 510 q 1020 636 1020 510 q 1020 680 1020 651 q 1020 724 1020 709 q 935 850 1020 850 q 849 724 849 850 q 850 680 849 709 q 851 635 851 650 q 766 510 851 510 q 705 534 730 510 q 680 595 680 559 l 680 1105 "},"\\":{"x_min":1,"x_max":1190.5625,"ha":1360,"o":"m 1 1105 q 25 1165 1 1141 q 86 1190 50 1190 q 230 1129 170 1190 l 1130 229 q 1190 85 1190 169 q 1166 24 1190 49 q 1106 0 1142 0 q 960 60 1020 0 l 61 959 q 1 1105 1 1019 "},"®":{"x_min":1,"x_max":1190.5625,"ha":1360,"o":"m 341 765 q 365 825 341 801 q 426 850 390 850 l 766 850 q 825 825 800 850 q 850 765 850 800 q 725 679 850 679 q 680 679 710 679 q 636 679 651 679 q 511 593 511 679 l 511 424 q 486 364 511 389 q 426 339 462 339 q 365 364 390 339 q 341 425 341 389 l 341 765 m 936 1190 l 256 1190 q 84 1107 167 1190 q 1 935 1 1025 l 1 255 q 83 82 1 164 q 256 0 165 0 l 936 0 q 1108 83 1025 0 q 1190 255 1190 166 l 1190 935 q 1108 1107 1190 1025 q 936 1190 1025 1190 m 1020 255 q 996 194 1020 219 q 936 169 972 169 l 256 169 q 195 194 220 169 q 171 255 171 219 l 171 935 q 195 995 171 971 q 256 1020 220 1020 l 936 1020 q 995 995 970 1020 q 1020 935 1020 970 l 1020 255 "},"’":{"x_min":341,"x_max":680.875,"ha":1360,"o":"m 426 1190 q 365 1165 390 1190 q 341 1105 341 1141 l 341 935 l 510 765 q 467 692 510 711 q 384 667 426 680 q 341 595 341 648 q 365 534 341 559 q 426 510 390 510 q 598 593 516 510 q 680 765 680 676 l 680 1105 q 655 1165 680 1141 q 595 1190 631 1190 l 426 1190 "},"~":{"x_min":171,"x_max":1020.6875,"ha":1360,"o":"m 936 1190 q 810 1143 880 1190 q 722 1097 740 1097 q 635 1143 705 1097 q 510 1190 565 1190 l 426 1190 q 254 1107 337 1190 q 171 935 171 1025 q 195 874 171 899 q 256 850 220 850 q 381 895 311 850 q 468 941 450 941 q 556 895 486 941 q 680 850 625 850 l 766 850 q 938 933 855 850 q 1020 1105 1020 1016 q 995 1165 1020 1140 q 936 1190 970 1190 "},"-":{"x_min":171,"x_max":1020.6875,"ha":1360,"o":"m 171 595 q 195 655 171 631 q 256 680 220 680 l 936 680 q 995 655 970 680 q 1020 595 1020 630 q 996 534 1020 559 q 936 510 972 510 l 256 510 q 195 534 220 510 q 171 595 171 559 "},"Q":{"x_min":1,"x_max":1190.5625,"ha":1360,"o":"m 1190 935 q 1108 1107 1190 1025 q 936 1190 1025 1190 l 256 1190 q 84 1107 167 1190 q 1 935 1 1025 l 1 255 q 83 82 1 164 q 256 0 165 0 l 766 0 q 871 30 812 0 q 936 60 929 60 q 1000 30 941 60 q 1106 0 1058 0 q 1166 24 1142 0 q 1190 85 1190 49 q 1160 190 1190 131 q 1130 255 1130 249 q 1160 319 1130 260 q 1190 425 1190 378 l 1190 935 m 850 595 q 826 534 850 559 q 766 509 802 509 l 596 509 q 552 484 552 509 q 585 435 552 470 q 647 362 608 412 q 681 255 681 311 q 656 194 681 219 q 596 169 632 169 l 426 169 q 365 194 390 169 q 341 255 341 219 l 341 935 q 365 995 341 971 q 426 1019 390 1019 l 766 1019 q 825 994 800 1019 q 850 935 850 969 l 850 595 "},"M":{"x_min":1,"x_max":1190.5625,"ha":1360,"o":"m 936 1190 q 795 1132 863 1190 q 690 1027 781 1120 q 596 969 634 969 q 500 1027 556 969 q 395 1132 409 1120 q 256 1190 328 1190 l 86 1190 q 25 1165 50 1190 q 1 1104 1 1140 l 1 85 q 25 24 1 49 q 86 0 50 0 l 256 0 q 316 24 292 0 q 340 85 340 49 l 340 595 q 366 638 340 638 q 413 605 379 638 q 487 543 462 559 q 596 509 538 509 q 703 543 651 509 q 777 605 730 560 q 825 638 812 638 q 850 595 850 638 l 850 85 q 875 24 850 49 q 936 0 900 0 l 1106 0 q 1166 24 1142 0 q 1190 85 1190 49 l 1190 1104 q 1166 1165 1190 1140 q 1106 1190 1142 1190 l 936 1190 "},"C":{"x_min":1,"x_max":1190.5625,"ha":1360,"o":"m 426 1190 l 936 1190 q 1108 1107 1025 1190 q 1190 935 1190 1025 q 1166 874 1190 899 q 1106 850 1142 850 l 936 850 q 863 893 882 850 q 837 976 850 935 q 766 1020 818 1020 l 596 1020 q 424 937 507 1020 q 341 765 341 855 l 341 424 q 424 252 341 334 q 596 170 507 170 l 766 170 q 837 213 818 170 q 863 296 850 254 q 936 340 882 340 l 1106 340 q 1165 315 1140 340 q 1190 255 1190 290 q 1108 83 1190 166 q 936 0 1025 0 l 426 0 q 280 60 340 0 l 61 279 q 1 424 1 340 l 1 765 q 61 910 1 850 l 280 1129 q 426 1190 340 1190 "},"[":{"x_min":341,"x_max":850.8125,"ha":1360,"o":"m 341 1105 q 365 1165 341 1141 q 426 1190 390 1190 l 766 1190 q 825 1165 800 1190 q 850 1105 850 1140 q 807 1032 850 1051 q 724 1007 766 1020 q 681 935 681 988 l 681 255 q 724 182 681 201 q 807 157 766 170 q 850 85 850 138 q 826 24 850 49 q 766 0 802 0 l 426 0 q 365 24 390 0 q 341 85 341 49 l 341 1105 "},"L":{"x_min":1,"x_max":1190.5625,"ha":1360,"o":"m 1 1104 q 25 1165 1 1140 q 86 1190 50 1190 l 256 1190 q 316 1165 292 1190 q 341 1104 341 1140 l 341 255 q 365 194 341 219 q 426 170 390 170 l 1106 170 q 1165 145 1140 170 q 1190 85 1190 120 q 1166 24 1190 49 q 1106 0 1142 0 l 86 0 q 25 24 50 0 q 1 85 1 49 l 1 1104 "},"!":{"x_min":341,"x_max":681,"ha":1360,"o":"m 341 1105 q 365 1165 341 1141 q 426 1190 390 1190 l 596 1190 q 656 1165 631 1190 q 681 1105 681 1140 l 681 595 q 656 534 681 559 q 596 509 632 509 l 426 509 q 365 534 390 509 q 341 595 341 559 l 341 1105 m 341 254 q 365 315 341 290 q 426 340 390 340 l 596 340 q 656 315 632 340 q 681 254 681 290 l 681 85 q 656 24 681 49 q 596 0 632 0 l 426 0 q 365 24 390 0 q 341 85 341 49 l 341 254 "}," ":{"x_min":0,"x_max":0,"ha":1360},"{":{"x_min":281,"x_max":850.859375,"ha":1360,"o":"m 850 1105 q 825 1165 850 1140 q 766 1190 801 1190 l 595 1190 q 450 1129 510 1190 q 365 1027 385 1066 q 338 898 338 976 q 339 832 338 876 q 341 765 341 787 q 311 659 341 718 q 281 595 281 600 q 311 530 281 589 q 341 425 341 471 q 339 358 341 402 q 338 291 338 314 q 365 163 338 213 q 450 60 385 125 q 595 0 510 0 l 766 0 q 826 24 802 0 q 850 85 850 49 l 680 255 l 680 425 q 650 530 680 471 q 620 595 620 589 q 650 659 620 600 q 680 765 680 718 l 680 935 q 724 1007 680 988 q 807 1032 765 1020 q 850 1105 850 1051 "},"X":{"x_min":1,"x_max":1190.5625,"ha":1360,"o":"m 1190 1105 q 1130 1184 1190 1169 q 1020 1190 1111 1190 q 874 1129 935 1190 l 656 909 q 596 885 632 885 q 535 909 559 885 l 316 1129 q 207 1184 273 1173 q 86 1190 178 1190 q 6 1129 21 1190 q 1 1020 1 1110 q 61 874 1 934 l 280 655 q 305 594 305 631 q 280 534 305 558 l 61 315 q 6 207 17 272 q 1 85 1 177 q 61 5 1 20 q 170 0 80 0 q 316 60 256 0 l 535 279 q 596 304 559 304 q 656 279 632 304 l 874 60 q 983 5 918 16 q 1106 0 1012 0 q 1185 60 1170 0 q 1190 170 1190 79 q 1130 315 1190 255 l 910 534 q 886 594 886 558 q 910 655 886 631 l 1130 874 q 1185 982 1173 917 q 1190 1105 1190 1012 "},"P":{"x_min":1,"x_max":1190.5625,"ha":1360,"o":"m 936 1190 l 86 1190 q 25 1165 50 1190 q 1 1105 1 1141 l 1 85 q 25 24 1 49 q 86 0 50 0 l 256 0 q 342 125 342 0 q 340 169 342 140 q 339 214 339 199 q 426 339 339 339 l 936 339 q 1108 422 1025 339 q 1190 595 1190 506 l 1190 935 q 1108 1107 1190 1025 q 936 1190 1025 1190 m 850 595 q 826 534 850 559 q 766 509 802 509 l 426 509 q 365 534 390 509 q 340 595 340 559 l 340 935 q 365 995 340 971 q 426 1019 390 1019 l 766 1019 q 825 994 800 1019 q 850 935 850 969 l 850 595 "},"%":{"x_min":1,"x_max":1190.5625,"ha":1360,"o":"m 256 1190 q 84 1107 167 1190 q 1 935 1 1025 q 83 762 1 844 q 256 679 165 679 q 428 762 345 679 q 510 935 510 846 q 428 1107 510 1025 q 256 1190 345 1190 m 341 935 q 316 874 341 899 q 256 850 292 850 q 195 874 220 850 q 171 935 171 899 q 195 995 171 971 q 256 1020 220 1020 q 316 995 291 1020 q 341 935 341 970 m 936 509 q 763 427 846 509 q 680 255 680 344 q 763 82 680 164 q 936 0 845 0 q 1108 83 1025 0 q 1190 255 1190 166 q 1108 427 1190 344 q 936 509 1025 509 m 1021 255 q 996 194 1021 219 q 936 170 972 170 q 875 194 900 170 q 851 255 851 219 q 875 315 851 291 q 936 340 900 340 q 996 315 971 340 q 1021 255 1021 290 m 1106 1190 q 1165 1165 1140 1190 q 1190 1105 1190 1140 q 1130 959 1190 1020 l 230 60 q 86 0 170 0 q 25 24 50 0 q 1 85 1 49 q 61 229 1 169 l 960 1129 q 1106 1190 1020 1190 "},"#":{"x_min":171,"x_max":1020.6875,"ha":1360,"o":"m 1020 765 q 977 837 1020 818 q 894 862 936 850 q 850 935 850 881 q 825 995 850 970 q 766 1020 800 1020 q 693 976 712 1020 q 668 893 680 935 q 596 849 648 849 q 523 893 542 849 q 498 976 510 935 q 426 1020 478 1020 q 365 995 390 1020 q 340 935 340 971 l 171 765 q 214 692 171 711 q 297 667 256 680 q 340 595 340 648 q 297 522 340 541 q 214 497 256 510 q 171 424 171 478 q 195 364 171 388 q 256 340 220 340 q 328 296 309 340 q 353 213 340 255 q 426 170 372 170 q 498 213 478 170 q 523 296 510 254 q 596 339 542 339 q 668 296 648 339 q 693 213 680 255 q 766 170 712 170 q 837 213 818 170 q 863 296 850 254 q 936 340 882 340 q 995 364 970 340 q 1020 424 1020 389 q 977 497 1020 478 q 894 522 936 510 q 850 595 850 541 q 894 667 850 648 q 977 692 936 680 q 1020 765 1020 711 m 681 595 q 656 534 681 559 q 596 510 632 510 q 535 534 560 510 q 511 595 511 559 q 535 655 511 631 q 596 680 560 680 q 656 655 631 680 q 681 595 681 630 "},"_":{"x_min":1,"x_max":1190.5625,"ha":1360,"o":"m 1 85 q 25 145 1 121 q 86 170 50 170 l 1106 170 q 1165 145 1140 170 q 1190 85 1190 120 q 1166 24 1190 49 q 1106 0 1142 0 l 86 0 q 25 24 50 0 q 1 85 1 49 "},"+":{"x_min":171,"x_max":1020.6875,"ha":1360,"o":"m 596 1020 q 680 894 680 1020 q 680 850 680 879 q 680 805 680 820 q 766 680 680 680 l 936 680 q 995 655 970 680 q 1020 595 1020 630 q 996 534 1020 559 q 936 510 972 510 l 766 510 q 680 384 680 510 q 680 340 680 369 q 680 295 680 310 q 595 170 680 170 q 535 194 560 170 q 511 255 511 219 l 511 423 q 385 510 511 510 q 341 510 370 510 q 296 510 311 510 q 171 596 171 510 q 195 655 171 631 q 256 680 220 680 l 425 680 q 511 805 511 680 q 511 850 511 820 q 511 894 511 879 q 596 1020 511 1020 "},")":{"x_min":340,"x_max":1020,"ha":1360,"o":"m 340 1105 q 364 1165 340 1141 q 425 1190 389 1190 l 595 1190 q 740 1129 680 1190 l 959 910 q 1020 765 1020 850 l 1020 425 q 959 279 1020 340 l 740 60 q 595 0 680 0 l 425 0 q 364 24 389 0 q 340 85 340 49 q 364 145 340 121 q 425 170 389 170 q 597 253 515 170 q 680 425 680 336 l 680 765 q 597 937 680 855 q 425 1020 515 1020 q 364 1044 389 1020 q 340 1105 340 1069 "},"'":{"x_min":171,"x_max":510.875,"ha":1360,"o":"m 256 1190 q 195 1165 220 1190 q 171 1105 171 1141 l 171 935 l 340 765 q 297 692 340 711 q 214 667 256 680 q 171 595 171 648 q 195 534 171 559 q 256 510 220 510 q 428 593 346 510 q 510 765 510 676 l 510 1105 q 485 1165 510 1140 q 426 1190 461 1190 l 256 1190 "},"}":{"x_min":341,"x_max":910.875,"ha":1360,"o":"m 596 1190 l 426 1190 q 365 1165 390 1190 q 341 1105 341 1141 q 384 1032 341 1051 q 467 1007 425 1020 q 510 935 510 988 l 510 765 q 540 659 510 718 q 570 595 570 600 q 540 530 570 589 q 510 425 510 471 l 510 255 q 467 182 510 201 q 384 157 426 170 q 341 85 341 138 q 365 24 341 49 q 426 0 390 0 l 596 0 q 740 60 680 0 q 826 163 806 125 q 853 291 853 213 q 852 357 853 313 q 850 425 850 402 q 880 530 850 471 q 910 595 910 589 q 880 659 910 600 q 850 765 850 718 q 852 832 850 787 q 853 898 853 876 q 826 1027 853 976 q 740 1129 806 1066 q 596 1190 680 1190 "},"a":{"x_min":1,"x_max":1190.5625,"ha":1360,"o":"m 766 1190 l 426 1190 q 280 1129 340 1190 l 61 910 q 1 765 1 850 l 1 85 q 25 24 1 49 q 86 0 50 0 l 256 0 q 342 125 342 0 q 340 169 342 140 q 339 214 339 199 q 426 339 339 339 l 766 339 q 851 214 851 339 q 850 169 851 199 q 849 125 849 140 q 936 0 849 0 l 1106 0 q 1166 24 1142 0 q 1190 85 1190 49 l 1190 765 q 1130 910 1190 850 l 910 1129 q 766 1190 850 1190 m 850 595 q 826 534 850 559 q 766 509 802 509 l 426 509 q 365 534 390 509 q 340 595 340 559 l 340 765 q 423 937 340 854 q 596 1019 506 1019 q 768 937 685 1019 q 850 765 850 854 l 850 595 "},"T":{"x_min":170,"x_max":1189.625,"ha":1360,"o":"m 170 1105 q 194 1165 170 1141 q 255 1190 219 1190 l 1105 1190 q 1164 1165 1139 1190 q 1189 1105 1189 1140 q 1064 1019 1189 1019 q 1019 1019 1049 1019 q 975 1019 990 1019 q 850 933 850 1019 l 850 85 q 825 24 850 49 q 765 0 801 0 l 595 0 q 534 24 559 0 q 510 85 510 49 l 510 933 q 384 1019 510 1019 q 340 1019 369 1019 q 295 1019 310 1019 q 170 1105 170 1019 "},"=":{"x_min":171,"x_max":1020.6875,"ha":1360,"o":"m 171 765 q 195 825 171 801 q 256 850 220 850 l 936 850 q 995 825 970 850 q 1020 765 1020 800 q 996 704 1020 729 q 936 680 972 680 l 256 680 q 195 704 220 680 q 171 765 171 729 m 171 425 q 195 485 171 461 q 256 510 220 510 l 936 510 q 995 485 970 510 q 1020 425 1020 460 q 996 364 1020 389 q 936 340 972 340 l 256 340 q 195 364 220 340 q 171 425 171 389 "},"N":{"x_min":1,"x_max":1190.5625,"ha":1360,"o":"m 825 636 q 790 655 809 636 l 316 1129 q 207 1184 273 1173 q 86 1190 178 1190 q 25 1165 50 1190 q 1 1105 1 1141 l 1 85 q 25 24 1 49 q 86 0 50 0 l 256 0 q 316 24 292 0 q 340 85 340 49 l 340 509 q 366 553 340 553 q 400 534 381 553 l 874 60 q 983 5 918 16 q 1106 0 1012 0 q 1166 24 1142 0 q 1190 85 1190 49 l 1190 1105 q 1165 1165 1190 1140 q 1106 1190 1140 1190 l 936 1190 q 875 1165 900 1190 q 850 1105 850 1141 l 850 679 q 825 636 850 636 "},"2":{"x_min":1,"x_max":1190.5625,"ha":1360,"o":"m 256 1190 q 84 1107 167 1190 q 1 935 1 1024 q 25 874 1 899 q 86 849 50 849 l 256 849 q 328 893 308 849 q 353 976 340 935 q 426 1020 372 1020 l 766 1020 q 825 995 800 1020 q 850 935 850 970 q 790 790 850 850 l 740 740 q 551 679 679 679 q 510 679 565 679 q 469 679 510 679 q 280 619 340 679 l 61 399 q 1 255 1 339 l 1 85 q 25 24 1 49 q 86 0 50 0 l 1106 0 q 1166 24 1142 0 q 1190 85 1190 49 q 1165 145 1190 120 q 1106 169 1140 169 l 596 169 q 515 229 531 169 q 510 339 510 249 q 535 400 510 375 q 596 425 560 425 q 652 424 615 425 q 708 422 689 422 q 910 485 848 422 l 1130 704 q 1185 812 1173 747 q 1190 935 1190 842 q 1108 1107 1190 1025 q 936 1190 1025 1190 l 256 1190 "},"j":{"x_min":1,"x_max":1191,"ha":1360,"o":"m 936 1190 l 1106 1190 q 1166 1165 1142 1190 q 1191 1104 1191 1140 l 1191 255 q 1108 83 1191 166 q 936 0 1026 0 l 256 0 q 83 82 165 0 q 1 255 1 164 l 1 424 q 25 484 1 459 q 86 509 50 509 l 256 509 q 342 384 342 509 q 342 339 342 369 q 342 295 342 310 q 428 170 342 170 l 767 170 q 826 194 802 170 q 851 255 851 219 l 851 1104 q 875 1165 851 1140 q 936 1190 900 1190 "},"Z":{"x_min":1,"x_max":1190.5625,"ha":1360,"o":"m 1 1105 q 25 1165 1 1141 q 86 1190 50 1190 l 1106 1190 q 1185 1129 1170 1190 q 1190 1020 1190 1110 q 1130 874 1190 934 l 570 315 q 510 212 510 255 q 544 178 510 190 q 596 170 569 170 l 1106 170 q 1165 145 1140 170 q 1190 85 1190 120 q 1166 24 1190 49 q 1106 0 1142 0 l 86 0 q 6 60 21 0 q 1 170 1 79 q 61 315 1 255 l 620 874 q 680 977 680 934 q 647 1011 680 999 q 596 1020 623 1020 l 86 1020 q 25 1044 50 1020 q 1 1105 1 1069 "},"u":{"x_min":1,"x_max":1191,"ha":1360,"o":"m 1 1105 q 25 1165 1 1141 q 86 1190 50 1190 l 256 1190 q 316 1165 291 1190 q 341 1105 341 1140 l 341 255 q 365 194 341 219 q 426 170 390 170 l 766 170 q 826 194 802 170 q 851 255 851 219 l 851 1105 q 875 1165 851 1141 q 936 1190 900 1190 l 1106 1190 q 1166 1165 1141 1190 q 1191 1105 1191 1140 l 1191 255 q 1108 83 1191 166 q 936 0 1026 0 l 256 0 q 83 82 165 0 q 1 255 1 164 l 1 1105 "},"1":{"x_min":170,"x_max":1189.625,"ha":1360,"o":"m 765 1190 l 595 1190 q 422 1107 506 1190 q 339 935 339 1025 l 509 765 l 509 255 q 384 168 509 168 q 339 169 369 168 q 295 171 310 171 q 170 85 170 171 q 194 24 170 49 q 255 0 219 0 l 1105 0 q 1165 24 1141 0 q 1189 85 1189 49 q 1064 171 1189 171 q 1019 169 1049 171 q 974 168 990 168 q 849 255 849 168 l 849 1105 q 824 1165 849 1140 q 765 1190 799 1190 "},"k":{"x_min":1,"x_max":1190.5625,"ha":1360,"o":"m 1190 1104 q 1166 1165 1190 1140 q 1106 1190 1142 1190 l 936 1190 q 790 1129 850 1190 l 400 739 q 366 720 381 720 q 340 765 340 720 l 340 1104 q 316 1165 340 1140 q 256 1190 292 1190 l 86 1190 q 25 1165 50 1190 q 1 1104 1 1140 l 1 85 q 25 24 1 49 q 86 0 50 0 l 256 0 q 342 125 342 0 q 340 169 342 140 q 339 214 339 199 q 426 339 339 339 l 936 0 l 1106 0 q 1166 24 1142 0 q 1190 85 1190 49 q 1130 230 1190 170 l 826 534 q 800 594 800 559 q 826 655 800 630 l 1130 959 q 1190 1104 1190 1020 "},"<":{"x_min":171,"x_max":809.859375,"ha":1360,"o":"m 596 1020 l 766 1020 q 809 994 809 1020 q 790 959 809 979 l 570 740 q 511 595 511 679 q 570 449 511 509 l 790 229 q 809 195 809 210 q 766 170 809 170 l 596 170 q 450 230 510 170 l 231 449 q 171 595 171 509 q 231 739 171 679 l 450 959 q 596 1020 510 1020 "},"t":{"x_min":170,"x_max":1189.625,"ha":1360,"o":"m 170 1105 q 194 1165 170 1141 q 255 1190 219 1190 l 1105 1190 q 1164 1165 1139 1190 q 1189 1105 1189 1140 q 1064 1019 1189 1019 q 1019 1019 1049 1019 q 975 1019 990 1019 q 850 933 850 1019 l 850 85 q 825 24 850 49 q 765 0 801 0 l 595 0 q 534 24 559 0 q 510 85 510 49 l 510 933 q 384 1019 510 1019 q 340 1019 369 1019 q 295 1019 310 1019 q 170 1105 170 1019 "},"W":{"x_min":1,"x_max":1190.5625,"ha":1360,"o":"m 936 1190 q 875 1165 900 1190 q 850 1105 850 1141 l 850 595 q 825 550 850 550 q 777 583 812 550 q 703 646 730 628 q 596 679 651 679 q 487 646 538 679 q 413 583 462 629 q 366 550 379 550 q 340 595 340 550 l 340 1105 q 315 1165 340 1140 q 256 1190 291 1190 l 86 1190 q 25 1165 50 1190 q 1 1105 1 1141 l 1 85 q 25 24 1 49 q 86 0 50 0 l 256 0 q 395 57 328 0 q 500 162 409 69 q 596 219 556 219 q 690 162 634 219 q 795 57 781 69 q 936 0 863 0 l 1106 0 q 1166 24 1142 0 q 1190 85 1190 49 l 1190 1105 q 1165 1165 1190 1140 q 1106 1190 1140 1190 l 936 1190 "},"ß":{"x_min":1,"x_max":1190.5625,"ha":1360,"o":"m 1 1105 q 25 1165 1 1140 q 85 1190 50 1190 l 1106 1190 q 1165 1165 1140 1190 q 1190 1105 1190 1140 l 1190 85 q 1166 24 1190 49 q 1106 0 1142 0 l 85 0 q 25 24 49 0 q 1 85 1 49 l 1 1105 "},"v":{"x_min":1,"x_max":1191,"ha":1360,"o":"m 1 1105 q 25 1165 1 1141 q 86 1190 50 1190 l 256 1190 q 316 1165 291 1190 q 341 1105 341 1140 l 341 765 q 374 656 341 707 q 596 509 468 509 q 817 656 723 509 q 851 765 851 707 l 851 1105 q 875 1165 851 1141 q 936 1190 900 1190 l 1106 1190 q 1166 1165 1141 1190 q 1191 1105 1191 1140 l 1191 595 q 1130 449 1191 510 l 741 60 q 596 0 681 0 q 450 60 511 0 l 61 449 q 1 595 1 510 l 1 1105 "},">":{"x_min":381,"x_max":1020,"ha":1360,"o":"m 381 994 q 425 1020 381 1020 l 595 1020 q 740 959 680 1020 l 959 739 q 1020 595 1020 679 q 959 449 1020 509 l 740 229 q 595 170 680 170 l 425 170 q 381 195 381 170 q 400 229 381 210 l 620 449 q 680 595 680 509 q 620 740 680 679 l 400 959 q 381 994 381 979 "},"s":{"x_min":1,"x_max":1191,"ha":1360,"o":"m 256 1190 l 766 1190 q 938 1107 855 1190 q 1020 935 1020 1025 q 996 874 1020 899 q 936 850 972 850 l 766 850 q 693 893 712 850 q 668 976 680 935 q 596 1020 648 1020 l 426 1020 q 365 995 390 1020 q 341 935 341 971 l 341 765 q 365 704 341 729 q 426 680 390 680 l 936 680 q 1044 646 992 680 q 1191 424 1191 552 l 1191 255 q 1108 83 1191 166 q 936 0 1026 0 l 256 0 q 83 82 165 0 q 1 255 1 164 q 25 315 1 291 q 86 340 50 340 l 256 340 q 328 296 309 340 q 353 213 341 255 q 426 170 372 170 l 766 170 q 826 194 802 170 q 851 255 851 219 l 851 424 q 826 485 851 460 q 766 510 802 510 l 256 510 q 148 543 199 510 q 1 765 1 637 l 1 935 q 84 1107 1 1025 q 256 1190 167 1190 "},"B":{"x_min":1,"x_max":1190.5625,"ha":1360,"o":"m 1190 935 q 1108 1107 1190 1025 q 936 1190 1025 1190 l 86 1190 q 25 1165 50 1190 q 1 1105 1 1141 l 1 85 q 25 24 1 49 q 86 0 50 0 l 936 0 q 1108 83 1025 0 q 1190 255 1190 166 l 1190 424 q 1160 530 1190 470 q 1130 594 1130 590 q 1160 659 1130 599 q 1190 765 1190 719 l 1190 935 m 850 255 q 826 194 850 219 q 766 170 802 170 l 426 170 q 365 194 390 170 q 340 255 340 219 l 340 424 q 365 485 340 460 q 426 510 390 510 l 766 510 q 826 485 802 510 q 850 424 850 460 l 850 255 m 850 765 q 826 704 850 729 q 766 680 802 680 l 426 680 q 365 704 390 680 q 340 765 340 729 l 340 935 q 365 995 340 971 q 426 1020 390 1020 l 766 1020 q 825 995 800 1020 q 850 935 850 970 l 850 765 "},"?":{"x_min":1,"x_max":1191,"ha":1360,"o":"m 86 850 q 25 874 50 850 q 1 935 1 899 q 84 1107 1 1025 q 256 1190 167 1190 l 936 1190 q 1108 1107 1026 1190 q 1191 935 1191 1025 q 1130 789 1191 849 q 1028 704 1067 724 q 899 677 977 677 q 833 678 877 677 q 766 679 788 679 q 693 636 712 679 q 668 553 681 595 q 596 510 649 510 l 426 510 q 365 534 390 510 q 341 595 341 559 q 401 739 341 679 l 450 789 q 651 852 513 852 q 709 852 670 852 q 766 852 747 852 q 826 876 802 852 q 851 936 851 901 q 826 995 851 970 q 766 1020 801 1020 l 426 1020 q 353 976 372 1020 q 328 893 341 935 q 256 850 309 850 l 86 850 m 341 254 q 365 315 341 290 q 426 340 390 340 l 596 340 q 656 315 632 340 q 681 254 681 290 l 681 85 q 656 24 681 49 q 596 0 632 0 l 426 0 q 365 24 390 0 q 341 85 341 49 l 341 254 "},"H":{"x_min":1,"x_max":1190.5625,"ha":1360,"o":"m 936 1190 q 875 1165 900 1190 q 850 1104 850 1140 l 850 765 q 826 704 850 729 q 766 679 802 679 l 426 679 q 365 704 390 679 q 340 765 340 729 l 340 1104 q 316 1165 340 1140 q 256 1190 292 1190 l 86 1190 q 25 1165 50 1190 q 1 1104 1 1140 l 1 85 q 25 24 1 49 q 86 0 50 0 l 256 0 q 316 24 292 0 q 340 85 340 49 l 340 424 q 365 484 340 459 q 426 509 390 509 l 766 509 q 826 484 802 509 q 850 424 850 459 l 850 85 q 875 24 850 49 q 936 0 900 0 l 1106 0 q 1166 24 1142 0 q 1190 85 1190 49 l 1190 1104 q 1166 1165 1190 1140 q 1106 1190 1142 1190 l 936 1190 "},"c":{"x_min":1,"x_max":1190.5625,"ha":1360,"o":"m 426 1190 l 936 1190 q 1108 1107 1025 1190 q 1190 935 1190 1025 q 1166 874 1190 899 q 1106 850 1142 850 l 936 850 q 863 893 882 850 q 837 976 850 935 q 766 1020 818 1020 l 596 1020 q 424 937 507 1020 q 341 765 341 855 l 341 424 q 424 252 341 334 q 596 170 507 170 l 766 170 q 837 213 818 170 q 863 296 850 254 q 936 340 882 340 l 1106 340 q 1165 315 1140 340 q 1190 255 1190 290 q 1108 83 1190 166 q 936 0 1025 0 l 426 0 q 280 60 340 0 l 61 279 q 1 424 1 340 l 1 765 q 61 910 1 850 l 280 1129 q 426 1190 340 1190 "},"&":{"x_min":1,"x_max":1190.5625,"ha":1360,"o":"m 1190 425 q 1165 484 1190 459 q 1106 509 1140 509 l 766 509 q 721 535 721 509 q 754 583 721 549 q 817 656 777 606 q 850 765 850 707 l 850 935 q 768 1107 850 1025 q 596 1190 685 1190 l 256 1190 q 84 1107 167 1190 q 1 935 1 1025 l 1 765 q 34 660 1 715 q 67 602 67 605 q 34 534 67 595 q 1 424 1 474 l 1 213 q 86 61 1 126 q 256 0 167 0 l 596 0 q 697 23 637 0 q 767 46 757 46 q 837 23 777 46 q 936 0 896 0 l 1106 0 q 1157 8 1133 0 q 1190 42 1190 20 q 1144 127 1190 72 q 1098 212 1098 182 q 1144 299 1098 229 q 1190 425 1190 369 m 341 935 q 365 995 341 971 q 426 1020 390 1020 l 596 1020 q 656 995 631 1020 q 681 935 681 970 l 681 765 q 656 704 681 729 q 596 680 632 680 q 423 762 505 680 q 341 935 341 844 m 256 127 q 195 152 220 127 q 170 213 170 177 l 170 424 q 192 509 170 509 q 279 456 211 509 l 624 181 q 647 148 647 163 q 606 127 647 127 l 256 127 "},"I":{"x_min":170,"x_max":1189.625,"ha":1360,"o":"m 170 1104 q 194 1165 170 1140 q 255 1190 219 1190 l 1105 1190 q 1165 1165 1141 1190 q 1189 1104 1189 1140 q 1064 1019 1189 1019 q 1019 1019 1049 1019 q 975 1019 990 1019 q 850 932 850 1019 l 850 255 q 975 169 850 169 q 1019 169 990 169 q 1064 169 1049 169 q 1189 84 1189 169 q 1165 24 1189 49 q 1105 0 1141 0 l 255 0 q 194 24 219 0 q 170 84 170 49 q 295 169 170 169 q 340 169 310 169 q 384 169 369 169 q 510 255 510 169 l 510 932 q 384 1019 510 1019 q 340 1019 369 1019 q 295 1019 310 1019 q 170 1104 170 1019 "},"•":{"x_min":341,"x_max":681,"ha":1360,"o":"m 341 595 q 365 655 341 631 q 426 680 390 680 l 595 680 q 656 655 631 680 q 681 595 681 631 l 681 425 q 656 364 681 389 q 595 340 631 340 l 426 340 q 365 364 390 340 q 341 425 341 389 l 341 595 "},"G":{"x_min":1,"x_max":1190.5625,"ha":1360,"o":"m 1 764 l 1 424 q 61 279 1 340 l 280 60 q 426 0 340 0 l 1106 0 q 1166 24 1142 0 q 1190 85 1190 49 l 1190 595 q 1165 655 1190 630 q 1106 680 1140 680 l 766 680 q 705 655 730 680 q 681 595 681 631 q 724 522 681 541 q 807 497 766 509 q 850 424 850 478 l 850 255 q 826 194 850 219 q 766 169 802 169 l 596 169 q 424 252 507 169 q 341 424 341 334 l 341 764 q 487 986 341 892 q 596 1020 539 1020 l 1106 1020 q 1165 1044 1140 1020 q 1190 1104 1190 1069 q 1166 1165 1190 1140 q 1106 1190 1142 1190 l 426 1190 q 280 1129 340 1190 l 61 910 q 1 764 1 850 "},"(":{"x_min":171,"x_max":850.75,"ha":1360,"o":"m 596 1190 l 766 1190 q 825 1165 800 1190 q 850 1105 850 1140 q 826 1044 850 1069 q 766 1020 802 1020 q 594 937 677 1020 q 511 765 511 855 l 511 425 q 593 252 511 334 q 766 170 675 170 q 825 145 800 170 q 850 85 850 120 q 826 24 850 49 q 766 0 802 0 l 596 0 q 450 60 510 0 l 231 279 q 171 425 171 340 l 171 765 q 231 910 171 850 l 450 1129 q 596 1190 510 1190 "},"`":{"x_min":510,"x_max":849.875,"ha":1360,"o":"m 849 935 q 825 874 849 899 q 765 850 801 850 q 592 932 674 850 q 510 1105 510 1014 q 534 1165 510 1141 q 595 1190 559 1190 q 767 1107 685 1190 q 849 935 849 1025 "},"U":{"x_min":1,"x_max":1191,"ha":1360,"o":"m 1 1105 q 25 1165 1 1141 q 86 1190 50 1190 l 256 1190 q 316 1165 291 1190 q 341 1105 341 1140 l 341 255 q 365 194 341 219 q 426 170 390 170 l 766 170 q 826 194 802 170 q 851 255 851 219 l 851 1105 q 875 1165 851 1141 q 936 1190 900 1190 l 1106 1190 q 1166 1165 1141 1190 q 1191 1105 1191 1140 l 1191 255 q 1108 83 1191 166 q 936 0 1026 0 l 256 0 q 83 82 165 0 q 1 255 1 164 l 1 1105 "},"F":{"x_min":1,"x_max":1190.5625,"ha":1360,"o":"m 1 1104 q 25 1165 1 1140 q 86 1190 50 1190 l 1106 1190 q 1166 1165 1142 1190 q 1190 1104 1190 1140 q 1165 1044 1190 1069 q 1106 1020 1140 1020 l 426 1020 q 365 995 390 1020 q 341 934 341 970 l 341 765 q 365 704 341 729 q 426 680 390 680 l 936 680 q 995 655 970 680 q 1020 595 1020 630 q 996 534 1020 559 q 936 510 972 510 l 426 510 q 365 485 390 510 q 341 424 341 460 l 341 85 q 316 24 341 49 q 256 0 292 0 l 86 0 q 25 24 50 0 q 1 85 1 49 l 1 1104 "},"r":{"x_min":1,"x_max":1190.5625,"ha":1360,"o":"m 1190 680 l 1190 935 q 1108 1107 1190 1025 q 936 1190 1025 1190 l 86 1190 q 25 1165 50 1190 q 1 1105 1 1141 l 1 85 q 25 24 1 49 q 86 0 50 0 l 256 0 q 342 125 342 0 q 340 169 342 140 q 339 214 339 199 q 426 339 339 339 l 936 0 l 1106 0 q 1157 8 1133 0 q 1190 42 1190 20 q 1103 175 1190 85 q 996 279 1088 190 q 970 340 970 304 q 1028 435 970 379 q 1133 539 1124 529 q 1190 680 1190 608 m 850 765 q 768 592 850 675 q 596 509 685 509 l 426 509 q 365 534 390 509 q 340 595 340 559 l 340 935 q 365 995 340 971 q 426 1019 390 1019 l 766 1019 q 825 994 800 1019 q 850 935 850 969 l 850 765 "},":":{"x_min":171,"x_max":511,"ha":1360,"o":"m 171 935 q 195 995 171 971 q 256 1020 220 1020 l 426 1020 q 486 995 461 1020 q 511 935 511 970 l 511 765 q 486 704 511 729 q 426 680 462 680 l 256 680 q 195 704 220 680 q 171 765 171 729 l 171 935 m 171 255 q 195 315 171 291 q 256 340 220 340 l 426 340 q 486 315 461 340 q 511 255 511 290 l 511 85 q 486 24 511 49 q 426 0 462 0 l 256 0 q 195 24 220 0 q 171 85 171 49 l 171 255 "},"x":{"x_min":1,"x_max":1190.5625,"ha":1360,"o":"m 1190 1105 q 1130 1184 1190 1169 q 1020 1190 1111 1190 q 874 1129 935 1190 l 656 909 q 596 885 632 885 q 535 909 559 885 l 316 1129 q 207 1184 273 1173 q 86 1190 178 1190 q 6 1129 21 1190 q 1 1020 1 1110 q 61 874 1 934 l 280 655 q 305 594 305 631 q 280 534 305 558 l 61 315 q 6 207 17 272 q 1 85 1 177 q 61 5 1 20 q 170 0 80 0 q 316 60 256 0 l 535 279 q 596 304 559 304 q 656 279 632 304 l 874 60 q 983 5 918 16 q 1106 0 1012 0 q 1185 60 1170 0 q 1190 170 1190 79 q 1130 315 1190 255 l 910 534 q 886 594 886 558 q 910 655 886 631 l 1130 874 q 1185 982 1173 917 q 1190 1105 1190 1012 "},"*":{"x_min":171,"x_max":1020.6875,"ha":1360,"o":"m 1020 765 q 960 844 1020 829 q 850 849 941 849 q 756 823 817 849 q 705 797 694 797 q 682 858 682 797 l 682 888 q 596 1020 682 1020 q 509 888 509 1020 l 509 858 q 487 797 509 797 q 468 807 480 797 q 366 847 431 839 q 256 849 346 849 q 195 825 220 849 q 171 765 171 801 l 340 595 q 297 522 340 541 l 215 497 q 171 425 171 477 q 231 344 171 360 q 340 339 250 339 q 435 366 374 339 q 487 392 496 392 q 509 330 509 392 l 509 301 q 596 170 509 170 q 682 301 682 170 l 682 330 q 705 392 682 392 q 722 382 711 392 q 825 342 760 350 q 936 339 845 339 q 996 364 972 339 q 1020 425 1020 389 q 977 497 1020 477 q 894 522 936 509 q 850 595 850 541 q 894 666 850 647 q 977 692 936 679 q 1020 765 1020 711 "},"V":{"x_min":1,"x_max":1191,"ha":1360,"o":"m 1 1105 q 25 1165 1 1141 q 86 1190 50 1190 l 256 1190 q 316 1165 291 1190 q 341 1105 341 1140 l 341 765 q 374 656 341 707 q 596 509 468 509 q 817 656 723 509 q 851 765 851 707 l 851 1105 q 875 1165 851 1141 q 936 1190 900 1190 l 1106 1190 q 1166 1165 1141 1190 q 1191 1105 1191 1140 l 1191 595 q 1130 449 1191 510 l 741 60 q 596 0 681 0 q 450 60 511 0 l 61 449 q 1 595 1 510 l 1 1105 "},"å":{"x_min":1,"x_max":1190.5625,"ha":1360,"o":"m 1 425 q 126 511 1 511 q 170 509 141 511 q 215 508 200 508 q 340 595 340 508 l 340 935 q 374 1044 340 993 q 596 1190 468 1190 q 817 1044 722 1190 q 850 935 850 993 l 850 595 q 975 508 850 508 q 1020 509 991 508 q 1065 511 1050 511 q 1190 425 1190 511 l 1190 85 q 1166 24 1190 49 q 1106 0 1142 0 l 85 0 q 25 24 49 0 q 1 85 1 49 l 1 425 "}," ":{"x_min":0,"x_max":0,"ha":1360},"h":{"x_min":1,"x_max":1190.5625,"ha":1360,"o":"m 936 1190 q 875 1165 900 1190 q 850 1104 850 1140 l 850 765 q 826 704 850 729 q 766 679 802 679 l 426 679 q 365 704 390 679 q 340 765 340 729 l 340 1104 q 316 1165 340 1140 q 256 1190 292 1190 l 86 1190 q 25 1165 50 1190 q 1 1104 1 1140 l 1 85 q 25 24 1 49 q 86 0 50 0 l 256 0 q 316 24 292 0 q 340 85 340 49 l 340 424 q 365 484 340 459 q 426 509 390 509 l 766 509 q 826 484 802 509 q 850 424 850 459 l 850 85 q 875 24 850 49 q 936 0 900 0 l 1106 0 q 1166 24 1142 0 q 1190 85 1190 49 l 1190 1104 q 1166 1165 1190 1140 q 1106 1190 1142 1190 l 936 1190 "},"0":{"x_min":1,"x_max":1190.5625,"ha":1360,"o":"m 766 1190 l 426 1190 q 280 1129 340 1190 l 61 910 q 1 765 1 850 l 1 425 q 34 317 1 368 q 110 230 53 287 l 230 109 q 317 33 288 52 q 426 0 368 0 l 766 0 q 910 60 850 0 l 1130 279 q 1190 425 1190 340 l 1190 765 q 1157 873 1190 821 q 1080 959 1138 902 l 960 1080 q 873 1156 903 1137 q 766 1190 822 1190 m 850 255 q 826 194 850 219 q 766 169 802 169 l 596 169 q 423 252 505 169 q 340 425 340 334 l 340 935 q 365 995 340 971 q 426 1019 390 1019 l 596 1019 q 768 937 685 1019 q 850 765 850 854 l 850 255 "},".":{"x_min":171,"x_max":511,"ha":1360,"o":"m 171 255 q 195 315 171 291 q 256 340 220 340 l 426 340 q 486 315 461 340 q 511 255 511 290 l 511 85 q 486 24 511 49 q 426 0 462 0 l 256 0 q 195 24 220 0 q 171 85 171 49 l 171 255 "},"”":{"x_min":171,"x_max":1020.6875,"ha":1360,"o":"m 171 935 l 340 765 q 297 692 340 711 q 214 667 256 680 q 171 595 171 648 q 195 534 171 559 q 256 510 220 510 q 428 593 346 510 q 511 765 511 676 l 511 1105 q 486 1165 511 1140 q 426 1190 461 1190 l 256 1190 q 195 1165 220 1190 q 171 1105 171 1141 l 171 935 m 681 935 l 850 765 q 807 692 850 711 q 724 667 766 680 q 681 595 681 648 q 705 534 681 559 q 766 510 730 510 q 938 593 855 510 q 1020 765 1020 676 l 1020 1105 q 995 1165 1020 1140 q 936 1190 970 1190 l 766 1190 q 705 1165 730 1190 q 681 1105 681 1141 l 681 935 "},"@":{"x_min":1,"x_max":1190.5625,"ha":1360,"o":"m 936 1190 l 256 1190 q 84 1107 167 1190 q 1 935 1 1025 l 1 255 q 83 82 1 164 q 256 0 165 0 l 936 0 q 996 24 972 0 q 1020 85 1020 49 q 995 145 1020 120 q 936 170 970 170 l 426 170 q 365 194 390 170 q 341 255 341 219 q 365 315 341 291 q 426 340 390 340 l 936 340 q 1043 373 992 340 q 1190 595 1190 467 l 1190 935 q 1108 1107 1190 1025 q 936 1190 1025 1190 m 511 595 q 486 534 511 559 q 426 510 462 510 q 365 534 390 510 q 341 595 341 559 q 365 655 341 631 q 426 680 390 680 q 486 655 461 680 q 511 595 511 630 m 851 595 q 826 534 851 559 q 766 510 802 510 q 705 534 730 510 q 681 595 681 559 l 681 765 q 555 851 681 851 q 511 851 540 851 q 466 851 481 851 q 341 936 341 851 q 365 996 341 972 q 426 1020 390 1020 l 766 1020 q 826 995 801 1020 q 851 935 851 970 l 851 595 "},"f":{"x_min":1,"x_max":1190.5625,"ha":1360,"o":"m 1 1104 q 25 1165 1 1140 q 86 1190 50 1190 l 1106 1190 q 1166 1165 1142 1190 q 1190 1104 1190 1140 q 1165 1044 1190 1069 q 1106 1020 1140 1020 l 426 1020 q 365 995 390 1020 q 341 934 341 970 l 341 765 q 365 704 341 729 q 426 680 390 680 l 936 680 q 995 655 970 680 q 1020 595 1020 630 q 996 534 1020 559 q 936 510 972 510 l 426 510 q 365 485 390 510 q 341 424 341 460 l 341 85 q 316 24 341 49 q 256 0 292 0 l 86 0 q 25 24 50 0 q 1 85 1 49 l 1 1104 "},";":{"x_min":171,"x_max":511,"ha":1360,"o":"m 171 1105 q 195 1165 171 1141 q 256 1190 220 1190 l 426 1190 q 486 1165 461 1190 q 511 1105 511 1140 l 511 935 q 486 874 511 899 q 426 850 462 850 l 256 850 q 195 874 220 850 q 171 935 171 899 l 171 1105 m 256 679 q 195 655 220 679 q 171 595 171 631 l 171 425 q 214 352 171 371 q 297 327 256 339 q 340 255 340 307 q 297 182 340 201 q 214 157 256 169 q 171 85 171 138 q 195 24 171 49 q 256 0 220 0 q 428 83 346 0 q 511 255 511 166 l 511 595 q 486 654 511 629 q 426 679 461 679 l 256 679 "},"“":{"x_min":171,"x_max":1020.6875,"ha":1360,"o":"m 171 935 l 171 595 q 195 534 171 559 q 256 510 220 510 l 426 510 q 486 534 462 510 q 511 595 511 559 l 511 765 q 467 837 511 818 q 384 862 426 850 q 341 935 341 881 q 384 1007 341 988 q 467 1032 425 1020 q 511 1105 511 1051 q 486 1165 511 1140 q 426 1190 461 1190 q 254 1107 337 1190 q 171 935 171 1025 m 1020 1105 q 995 1165 1020 1140 q 936 1190 970 1190 q 764 1107 847 1190 q 681 935 681 1025 l 681 595 q 705 534 681 559 q 766 510 730 510 l 936 510 q 996 534 972 510 q 1020 595 1020 559 l 1020 765 q 977 837 1020 818 q 894 862 936 850 q 850 935 850 881 q 894 1007 850 988 q 977 1032 936 1020 q 1020 1105 1020 1051 "},"i":{"x_min":170,"x_max":1189.625,"ha":1360,"o":"m 170 1104 q 194 1165 170 1140 q 255 1190 219 1190 l 1105 1190 q 1165 1165 1141 1190 q 1189 1104 1189 1140 q 1064 1019 1189 1019 q 1019 1019 1049 1019 q 975 1019 990 1019 q 850 932 850 1019 l 850 255 q 975 169 850 169 q 1019 169 990 169 q 1064 169 1049 169 q 1189 84 1189 169 q 1165 24 1189 49 q 1105 0 1141 0 l 255 0 q 194 24 219 0 q 170 84 170 49 q 295 169 170 169 q 340 169 310 169 q 384 169 369 169 q 510 255 510 169 l 510 932 q 384 1019 510 1019 q 340 1019 369 1019 q 295 1019 310 1019 q 170 1104 170 1019 "},"6":{"x_min":1,"x_max":1190.5625,"ha":1360,"o":"m 340 765 q 487 986 340 889 q 596 1020 537 1020 l 936 1020 q 996 1044 972 1020 q 1020 1105 1020 1069 q 995 1165 1020 1140 q 936 1190 970 1190 l 426 1190 q 317 1156 368 1190 q 230 1080 288 1137 l 110 959 q 34 873 53 902 q 1 765 1 821 l 1 255 q 83 82 1 164 q 256 0 165 0 l 936 0 q 1108 83 1025 0 q 1190 255 1190 166 l 1190 424 q 1043 646 1190 549 q 936 680 993 680 l 426 680 q 365 704 390 680 q 340 765 340 729 m 850 255 q 826 194 850 219 q 766 170 802 170 l 426 170 q 365 194 390 170 q 340 255 340 219 l 340 424 q 365 485 340 460 q 426 510 390 510 l 766 510 q 826 485 802 510 q 850 424 850 460 l 850 255 "},"A":{"x_min":1,"x_max":1190.5625,"ha":1360,"o":"m 766 1190 l 426 1190 q 280 1129 340 1190 l 61 910 q 1 765 1 850 l 1 85 q 25 24 1 49 q 86 0 50 0 l 256 0 q 342 125 342 0 q 340 169 342 140 q 339 214 339 199 q 426 339 339 339 l 766 339 q 851 214 851 339 q 850 169 851 199 q 849 125 849 140 q 936 0 849 0 l 1106 0 q 1166 24 1142 0 q 1190 85 1190 49 l 1190 765 q 1130 910 1190 850 l 910 1129 q 766 1190 850 1190 m 850 595 q 826 534 850 559 q 766 509 802 509 l 426 509 q 365 534 390 509 q 340 595 340 559 l 340 765 q 423 937 340 854 q 596 1019 506 1019 q 768 937 685 1019 q 850 765 850 854 l 850 595 "},"‘":{"x_min":510,"x_max":849.875,"ha":1360,"o":"m 849 1105 q 824 1165 849 1140 q 765 1190 800 1190 q 593 1107 676 1190 q 510 935 510 1025 l 510 595 q 534 534 510 559 q 595 510 559 510 l 765 510 q 825 534 801 510 q 849 595 849 559 l 849 765 q 806 837 849 818 q 723 862 765 850 q 679 935 679 881 q 723 1007 679 988 q 806 1032 765 1020 q 849 1105 849 1051 "},"π":{"x_min":1,"x_max":1190.5625,"ha":1360,"o":"m 936 1190 l 255 1190 q 83 1107 165 1190 q 1 935 1 1025 l 1 255 q 83 83 1 166 q 255 0 165 0 l 936 0 q 1108 83 1025 0 q 1190 255 1190 166 l 1190 935 q 1108 1107 1190 1025 q 936 1190 1025 1190 m 1021 255 q 996 194 1021 219 q 936 169 972 169 l 595 169 q 535 194 559 169 q 511 255 511 219 q 636 341 511 341 q 681 339 651 341 q 725 338 710 338 q 851 425 851 338 l 851 765 q 826 825 851 800 q 766 850 801 850 l 426 850 q 365 825 390 850 q 341 765 341 801 l 341 255 q 316 194 341 219 q 255 169 291 169 q 195 194 219 169 q 171 255 171 219 l 171 935 q 195 995 171 970 q 255 1020 220 1020 l 936 1020 q 996 995 971 1020 q 1021 935 1021 970 l 1021 255 m 595 510 q 535 534 559 510 q 511 595 511 559 q 535 655 511 630 q 595 680 560 680 q 656 655 631 680 q 681 595 681 631 q 656 534 681 559 q 595 510 631 510 "},"n":{"x_min":1,"x_max":1190.5625,"ha":1360,"o":"m 825 636 q 790 655 809 636 l 316 1129 q 207 1184 273 1173 q 86 1190 178 1190 q 25 1165 50 1190 q 1 1105 1 1141 l 1 85 q 25 24 1 49 q 86 0 50 0 l 256 0 q 316 24 292 0 q 340 85 340 49 l 340 509 q 366 553 340 553 q 400 534 381 553 l 874 60 q 983 5 918 16 q 1106 0 1012 0 q 1166 24 1142 0 q 1190 85 1190 49 l 1190 1105 q 1165 1165 1190 1140 q 1106 1190 1140 1190 l 936 1190 q 875 1165 900 1190 q 850 1105 850 1141 l 850 679 q 825 636 850 636 "},"O":{"x_min":1,"x_max":1190.5625,"ha":1360,"o":"m 256 1190 q 84 1107 167 1190 q 1 935 1 1025 l 1 255 q 83 82 1 164 q 256 0 165 0 l 936 0 q 1108 83 1025 0 q 1190 255 1190 166 l 1190 935 q 1108 1107 1190 1025 q 936 1190 1025 1190 l 256 1190 m 850 255 q 826 194 850 219 q 766 169 802 169 l 426 169 q 365 194 390 169 q 340 255 340 219 l 340 935 q 365 995 340 971 q 426 1019 390 1019 l 766 1019 q 825 994 800 1019 q 850 935 850 969 l 850 255 "},"3":{"x_min":1,"x_max":1190.5625,"ha":1360,"o":"m 170 1105 q 195 1044 170 1069 q 256 1019 220 1019 l 596 1019 q 639 994 639 1019 q 620 959 639 978 l 400 739 q 340 595 340 679 q 365 534 340 559 q 426 510 390 510 l 766 510 q 826 485 802 510 q 850 424 850 460 l 850 255 q 826 194 850 219 q 766 170 802 170 l 426 170 q 353 213 372 170 q 328 296 340 255 q 256 339 308 339 l 86 339 q 25 315 50 339 q 1 255 1 291 q 83 82 1 164 q 256 0 165 0 l 936 0 q 1108 83 1025 0 q 1190 255 1190 166 l 1190 424 q 1108 596 1190 513 q 936 679 1025 679 q 863 678 827 679 q 807 705 807 681 q 906 825 807 730 l 1090 1000 q 1190 1147 1190 1103 q 1157 1181 1190 1169 q 1106 1190 1133 1190 l 256 1190 q 195 1165 220 1190 q 170 1105 170 1141 "},"]":{"x_min":341,"x_max":851,"ha":1360,"o":"m 341 1105 q 365 1165 341 1141 q 426 1190 390 1190 l 766 1190 q 826 1165 801 1190 q 851 1105 851 1140 l 851 85 q 826 24 851 49 q 766 0 802 0 l 426 0 q 365 24 390 0 q 341 85 341 49 q 384 157 341 138 q 467 182 426 170 q 511 255 511 201 l 511 935 q 467 1007 511 988 q 384 1032 426 1020 q 341 1105 341 1051 "},"m":{"x_min":1,"x_max":1190.5625,"ha":1360,"o":"m 936 1190 q 795 1132 863 1190 q 690 1027 781 1120 q 596 969 634 969 q 500 1027 556 969 q 395 1132 409 1120 q 256 1190 328 1190 l 86 1190 q 25 1165 50 1190 q 1 1104 1 1140 l 1 85 q 25 24 1 49 q 86 0 50 0 l 256 0 q 316 24 292 0 q 340 85 340 49 l 340 595 q 366 638 340 638 q 413 605 379 638 q 487 543 462 559 q 596 509 538 509 q 703 543 651 509 q 777 605 730 560 q 825 638 812 638 q 850 595 850 638 l 850 85 q 875 24 850 49 q 936 0 900 0 l 1106 0 q 1166 24 1142 0 q 1190 85 1190 49 l 1190 1104 q 1166 1165 1190 1140 q 1106 1190 1142 1190 l 936 1190 "},"9":{"x_min":1,"x_max":1190.5625,"ha":1360,"o":"m 256 1190 q 84 1107 167 1190 q 1 935 1 1025 l 1 765 q 147 543 1 640 q 256 510 197 510 l 766 510 q 825 485 800 510 q 850 425 850 460 q 703 203 850 300 q 596 170 653 170 l 256 170 q 195 145 220 170 q 170 85 170 121 q 195 24 170 49 q 256 0 220 0 l 766 0 q 873 33 822 0 q 960 109 903 52 l 1080 230 q 1157 317 1138 287 q 1190 425 1190 368 l 1190 935 q 1108 1107 1190 1025 q 936 1190 1025 1190 l 256 1190 m 850 765 q 826 704 850 729 q 766 680 802 680 l 426 680 q 365 704 390 680 q 340 765 340 729 l 340 935 q 365 995 340 971 q 426 1020 390 1020 l 766 1020 q 825 995 800 1020 q 850 935 850 970 l 850 765 "},"l":{"x_min":1,"x_max":1190.5625,"ha":1360,"o":"m 1 1104 q 25 1165 1 1140 q 86 1190 50 1190 l 256 1190 q 316 1165 292 1190 q 341 1104 341 1140 l 341 255 q 365 194 341 219 q 426 170 390 170 l 1106 170 q 1165 145 1140 170 q 1190 85 1190 120 q 1166 24 1190 49 q 1106 0 1142 0 l 86 0 q 25 24 50 0 q 1 85 1 49 l 1 1104 "},"8":{"x_min":1,"x_max":1190.5625,"ha":1360,"o":"m 987 639 q 1004 671 987 607 q 1020 765 1020 736 l 1020 935 q 938 1107 1020 1025 q 766 1190 855 1190 l 256 1190 q 84 1107 167 1190 q 1 935 1 1025 l 1 765 q 31 659 1 719 q 61 594 61 599 q 31 530 61 590 q 1 424 1 470 l 1 255 q 83 82 1 164 q 256 0 165 0 l 936 0 q 1108 83 1025 0 q 1190 255 1190 166 l 1190 424 q 1138 530 1190 487 q 1039 586 1120 545 q 987 639 987 613 m 340 935 q 365 995 340 971 q 426 1020 390 1020 l 766 1020 q 825 995 800 1020 q 850 935 850 970 l 850 765 q 826 704 850 729 q 766 680 802 680 l 596 680 q 423 762 505 680 q 340 935 340 844 m 850 255 q 826 194 850 219 q 766 170 802 170 l 256 170 q 195 194 220 170 q 170 255 170 219 l 170 424 q 195 485 170 460 q 256 510 220 510 l 426 510 q 586 471 508 510 l 775 378 q 828 326 805 363 q 850 255 850 290 "},"p":{"x_min":1,"x_max":1190.5625,"ha":1360,"o":"m 936 1190 l 86 1190 q 25 1165 50 1190 q 1 1105 1 1141 l 1 85 q 25 24 1 49 q 86 0 50 0 l 256 0 q 342 125 342 0 q 340 169 342 140 q 339 214 339 199 q 426 339 339 339 l 936 339 q 1108 422 1025 339 q 1190 595 1190 506 l 1190 935 q 1108 1107 1190 1025 q 936 1190 1025 1190 m 850 595 q 826 534 850 559 q 766 509 802 509 l 426 509 q 365 534 390 509 q 340 595 340 559 l 340 935 q 365 995 340 971 q 426 1019 390 1019 l 766 1019 q 825 994 800 1019 q 850 935 850 969 l 850 595 "},"4":{"x_min":1,"x_max":1190.5625,"ha":1360,"o":"m 936 1190 l 596 1190 q 450 1129 510 1190 l 61 740 q 1 595 1 679 l 1 425 q 25 364 1 389 q 86 339 50 339 l 595 339 q 681 214 681 339 q 681 169 681 199 q 681 125 681 140 q 767 0 681 0 l 936 0 q 996 24 972 0 q 1020 85 1020 49 l 1020 255 q 1064 327 1020 308 q 1147 352 1106 340 q 1190 425 1190 371 l 1020 595 l 1020 1105 q 995 1165 1020 1140 q 936 1190 970 1190 m 681 595 q 656 534 681 559 q 596 509 632 509 l 426 509 q 365 534 390 509 q 341 595 341 559 q 401 739 341 679 l 620 959 q 655 978 640 978 q 681 935 681 978 l 681 595 "},"R":{"x_min":1,"x_max":1190.5625,"ha":1360,"o":"m 1190 680 l 1190 935 q 1108 1107 1190 1025 q 936 1190 1025 1190 l 86 1190 q 25 1165 50 1190 q 1 1105 1 1141 l 1 85 q 25 24 1 49 q 86 0 50 0 l 256 0 q 342 125 342 0 q 340 169 342 140 q 339 214 339 199 q 426 339 339 339 l 936 0 l 1106 0 q 1157 8 1133 0 q 1190 42 1190 20 q 1103 175 1190 85 q 996 279 1088 190 q 970 340 970 304 q 1028 435 970 379 q 1133 539 1124 529 q 1190 680 1190 608 m 850 765 q 768 592 850 675 q 596 509 685 509 l 426 509 q 365 534 390 509 q 340 595 340 559 l 340 935 q 365 995 340 971 q 426 1019 390 1019 l 766 1019 q 825 994 800 1019 q 850 935 850 969 l 850 765 "},"o":{"x_min":1,"x_max":1190.5625,"ha":1360,"o":"m 256 1190 q 84 1107 167 1190 q 1 935 1 1025 l 1 255 q 83 82 1 164 q 256 0 165 0 l 936 0 q 1108 83 1025 0 q 1190 255 1190 166 l 1190 935 q 1108 1107 1190 1025 q 936 1190 1025 1190 l 256 1190 m 850 255 q 826 194 850 219 q 766 169 802 169 l 426 169 q 365 194 390 169 q 340 255 340 219 l 340 935 q 365 995 340 971 q 426 1019 390 1019 l 766 1019 q 825 994 800 1019 q 850 935 850 969 l 850 255 "},"5":{"x_min":1,"x_max":1191,"ha":1360,"o":"m 1 1105 q 25 1165 1 1141 q 86 1190 50 1190 l 936 1190 q 995 1165 970 1190 q 1020 1105 1020 1140 q 996 1044 1020 1069 q 936 1020 972 1020 l 426 1020 q 365 995 390 1020 q 341 935 341 971 q 365 874 341 899 q 426 850 390 850 l 936 850 q 1044 816 992 850 q 1191 595 1191 722 l 1191 255 q 1108 83 1191 166 q 936 0 1026 0 l 256 0 q 83 82 165 0 q 1 255 1 164 q 25 315 1 291 q 86 340 50 340 l 256 340 q 328 296 309 340 q 353 213 341 255 q 426 170 372 170 l 766 170 q 826 194 802 170 q 851 255 851 219 l 851 595 q 826 655 851 630 q 766 680 801 680 l 86 680 q 25 704 50 680 q 1 765 1 729 l 1 1105 "}}}
